<svg xmlns="http://www.w3.org/2000/svg" viewBox="0 0 160 160"><defs><style>.cls-1{fill:#1b1c1d;}.cls-2{fill:#004bff;}.cls-3{fill:#0fd15d;}</style></defs><g id="_7" data-name="7"><path class="cls-1" d="M80,141c-14,0-25-26.79-25-61S66,19,80,19s25,26.79,25,61S94,141,80,141ZM80,21C67.32,21,57,47.47,57,80s10.32,59,23,59,23-26.47,23-59S92.68,21,80,21Z"/><path class="cls-2" d="M115.93,117.5a55.66,55.66,0,0,1-7.82-.6c-12.2-1.76-26.62-7.17-40.61-15.25-29.62-17.1-47.34-40-40.33-52.15s35.71-8.25,65.33,8.85,47.34,40,40.33,52.15C130.17,115.1,124.29,117.5,115.93,117.5ZM44,44.42c-7.34,0-12.76,2-15.14,6.08-6.34,11,11.43,33.15,39.6,49.42,13.77,8,27.94,13.28,39.9,15,11.48,1.65,19.75-.32,22.7-5.42,6.34-11-11.43-33.15-39.6-49.42C73.88,49.91,56.29,44.42,44,44.42Z"/><path class="cls-3" d="M44.07,117.5c-8.36,0-14.24-2.4-16.9-7-7-12.14,10.71-35,40.33-52.15s58.32-21,65.33-8.85S122.12,84.55,92.5,101.65c-14,8.08-28.41,13.49-40.61,15.25A55.66,55.66,0,0,1,44.07,117.5ZM116,44.42c-12.25,0-29.84,5.49-47.46,15.66C40.33,76.35,22.56,98.52,28.9,109.5c3,5.1,11.22,7.07,22.7,5.42,12-1.72,26.13-7,39.9-15,28.17-16.27,45.94-38.44,39.6-49.42C128.72,46.39,123.29,44.42,116,44.42Z"/><polygon class="cls-1" points="80 76 76.54 78 76.54 82 80 84 83.46 82 83.46 78 80 76"/></g></svg>