<?xml version="1.0" encoding="UTF-8"?><svg xmlns="http://www.w3.org/2000/svg" viewBox="0 0 512 512"><defs><style>.h{fill:none;}.i{fill:#33de72;}</style></defs><g id="a"><g id="b"><circle id="c" cx="342.71" cy="232.74" r="28"/><path id="d" class="i" d="M113.37,336.14c-9.67,0-19.37-1.12-28.92-3.41-32.41-7.75-59.27-27.93-73.69-55.37l42.49-22.34c7.98,15.18,23.42,26.49,42.37,31.02,21.62,5.17,44.57,.65,62.96-12.41,13.83-9.82,25.49-31.96,37.83-55.4,24.49-46.49,54.96-104.35,127.08-113.01,41.83-5.02,78.62,5.34,106.37,29.96,36.46,32.35,49.45,81.84,49.45,117.37h-48c0-23.95-8.72-59.65-33.31-81.46-17.43-15.47-40.58-21.59-68.79-18.2-47.12,5.65-68.11,45.52-90.33,87.72-15.09,28.65-29.35,55.72-52.52,72.17-21.6,15.33-47.15,23.36-72.99,23.36Zm350.63,31.86H48v48H464v-48Z"/><rect id="e" class="h" width="512" height="512"/></g></g><g id="f"/><g id="g"/></svg>