<svg xmlns="http://www.w3.org/2000/svg" viewBox="0 0 160 160"><defs><style>.cls-1{fill:#0fd15d;}.cls-2{fill:#1b1c1d;}.cls-3{fill:#004bff;}</style></defs><g id="_2" data-name="2"><path class="cls-1" d="M80,33a8,8,0,1,1,8-8A8,8,0,0,1,80,33Zm0-14a6,6,0,1,0,6,6A6,6,0,0,0,80,19Z"/><path class="cls-1" d="M40,126a8,8,0,1,1,8-8A8,8,0,0,1,40,126Zm0-14a6,6,0,1,0,6,6A6,6,0,0,0,40,112Z"/><path class="cls-2" d="M91.77,27.31a53.95,53.95,0,0,1,35,79.67,13,13,0,0,1,1.76,1A56,56,0,0,0,92,25.3,11,11,0,0,1,91.77,27.31Z"/><path class="cls-2" d="M111.51,123.81a53.86,53.86,0,0,1-61.63,1,12.62,12.62,0,0,1-1.27,1.55,55.83,55.83,0,0,0,64-.88A11.71,11.71,0,0,1,111.51,123.81Z"/><path class="cls-2" d="M33.72,107.79A54,54,0,0,1,68.23,27.31a11,11,0,0,1-.21-2A56,56,0,0,0,32.1,109,11.84,11.84,0,0,1,33.72,107.79Z"/><path class="cls-1" d="M122,126a8,8,0,1,1,8-8A8,8,0,0,1,122,126Zm0-14a6,6,0,1,0,6,6A6,6,0,0,0,122,112Z"/><polygon class="cls-3" points="101.53 68.85 100.47 67.15 80 79.82 59.53 67.15 58.47 68.85 79 81.56 79 104 81 104 81 81.56 101.53 68.85"/><path class="cls-2" d="M80,105.15,58.22,92.58V67.42L80,54.85l21.78,12.57V92.58ZM60.22,91.42,80,102.85,99.78,91.42V68.58L80,57.15,60.22,68.58Z"/></g></svg>