<svg xmlns="http://www.w3.org/2000/svg" viewBox="0 0 160 160"><defs><style>.cls-1{fill:#1b1c1d;}.cls-2{fill:#0fd15d;}.cls-3{fill:#004bff;}</style></defs><g id="_3" data-name="3"><rect class="cls-1" x="53" y="34.98" width="2" height="60.03" transform="translate(-29.29 79.29) rotate(-60.02)"/><rect class="cls-1" x="75.98" y="64" width="60.03" height="2" transform="translate(-18.3 61.7) rotate(-29.99)"/><rect class="cls-1" x="79" y="79" width="2" height="61"/><rect class="cls-1" x="79" y="20" width="2" height="30"/><rect class="cls-1" x="118" y="87.49" width="2" height="30.02" transform="translate(-29.25 154.35) rotate(-60.02)"/><rect class="cls-1" x="25.99" y="101.5" width="30.02" height="2" transform="translate(-45.75 34.22) rotate(-29.99)"/><path class="cls-2" d="M80,141.15l-.5-.28L27,110.58V49.42L80,18.85l53,30.57v61.16ZM29,109.42l51,29.43,51-29.43V50.58L80,21.15,29,50.58Z"/><path class="cls-3" d="M80,111.15,53,95.58V64.42L80,48.85l27,15.57V95.58ZM55,94.42l25,14.43,25-14.43V65.58L80,51.15,55,65.58Z"/></g></svg>