<svg xmlns="http://www.w3.org/2000/svg" viewBox="0 0 160 160"><defs><style>.cls-1{fill:#004bff;}.cls-2{fill:#1b1c1d;}.cls-3{fill:#0fd15d;}</style></defs><g id="_4" data-name="4"><path class="cls-1" d="M43,129H41V95.1a31.06,31.06,0,0,1-12.5,3.4,13,13,0,0,1,0-26A31.06,31.06,0,0,1,41,75.9V41h2V79.3l-1.5-.86c-4-2.28-9.44-3.94-13-3.94a11,11,0,0,0,0,22c3.55,0,9-1.66,13-3.94L43,91.7Z"/><path class="cls-2" d="M129,129H90.7l.86-1.5c2.28-4,3.94-9.45,3.94-13a11,11,0,0,0-22,0c0,3.55,1.66,9,3.94,13l.86,1.5H41v-2H74.9a31.06,31.06,0,0,1-3.4-12.5,13,13,0,0,1,26,0A31.06,31.06,0,0,1,94.1,127H129Z"/><path class="cls-3" d="M129,129h-2V95.1a31.06,31.06,0,0,1-12.5,3.4,13,13,0,0,1,0-26A31.06,31.06,0,0,1,127,75.9V41h2V79.3l-1.5-.86c-4-2.28-9.44-3.94-13-3.94a11,11,0,0,0,0,22c3.55,0,9-1.66,13-3.94l1.5-.86Z"/><path class="cls-2" d="M129,43H90.7l.86-1.5c2.28-4,3.94-9.45,3.94-13a11,11,0,0,0-22,0c0,3.55,1.66,9,3.94,13L78.3,43H41V41H74.9a31.06,31.06,0,0,1-3.4-12.5,13,13,0,0,1,26,0A31.06,31.06,0,0,1,94.1,41H129Z"/></g></svg>