<svg xmlns="http://www.w3.org/2000/svg" viewBox="0 0 160 160"><defs><style>.cls-1{fill:#1b1c1d;}.cls-2{fill:#004bff;}.cls-3{fill:#0fd15d;}</style></defs><g id="_5" data-name="5"><rect class="cls-1" x="27.96" y="107" width="48.08" height="2" transform="translate(-61.14 68.4) rotate(-45)"/><rect class="cls-1" x="83.96" y="52" width="48.08" height="2" transform="translate(-5.84 91.89) rotate(-45)"/><rect class="cls-1" x="51" y="27.96" width="2" height="48.08" transform="translate(-21.54 52) rotate(-45)"/><rect class="cls-1" x="107" y="83.96" width="2" height="48.08" transform="translate(-44.74 108) rotate(-45)"/><path class="cls-2" d="M80,141c-16,0-29-27.36-29-61S64,19,80,19s29,27.36,29,61S96,141,80,141ZM80,21C65.11,21,53,47.47,53,80s12.11,59,27,59,27-26.47,27-59S94.89,21,80,21Z"/><path class="cls-3" d="M80,109c-33.64,0-61-13-61-29S46.36,51,80,51s61,13,61,29S113.64,109,80,109Zm0-56C47.47,53,21,65.11,21,80s26.47,27,59,27,59-12.11,59-27S112.53,53,80,53Z"/><path class="cls-1" d="M80,96A16,16,0,1,1,96,80,16,16,0,0,1,80,96Zm0-30A14,14,0,1,0,94,80,14,14,0,0,0,80,66Z"/><path class="cls-1" d="M29,38A10,10,0,1,1,39,28,10,10,0,0,1,29,38Zm0-18a8,8,0,1,0,8,8A8,8,0,0,0,29,20Z"/><path class="cls-1" d="M131,38.5a10,10,0,1,1,10-10A10,10,0,0,1,131,38.5Zm0-18a8,8,0,1,0,8,8A8,8,0,0,0,131,20.5Z"/><path class="cls-1" d="M29,142a10,10,0,1,1,10-10A10,10,0,0,1,29,142Zm0-18a8,8,0,1,0,8,8A8,8,0,0,0,29,124Z"/><path class="cls-1" d="M131,142.5a10,10,0,1,1,10-10A10,10,0,0,1,131,142.5Zm0-18a8,8,0,1,0,8,8A8,8,0,0,0,131,124.5Z"/></g></svg>